<svg width="49" height="48" viewBox="0 0 49 48" fill="none" xmlns="http://www.w3.org/2000/svg">
<g clip-path="url(#clip0_964_6386)">
<path d="M44.1502 22.2822C43.5747 22.2864 43.0046 22.3962 42.4674 22.6064L36.7271 17.8217C36.8683 17.3001 36.9689 16.7589 36.9689 16.1886C36.9689 12.8103 34.3022 10.095 30.9844 10.095C27.6666 10.095 25 12.8103 25 16.1886C25 17.1538 25.2393 18.0532 25.6271 18.8625L18.6636 27.2424C18.3849 27.1893 18.1022 27.1607 17.8186 27.1571C17.3901 27.1571 16.9856 27.2302 16.593 27.3374L10.4577 21.0903C10.5655 20.693 10.6373 20.281 10.6373 19.8447C10.6373 17.1441 8.50201 14.9699 5.8497 14.9699C3.19739 14.9699 1.06213 17.1441 1.06213 19.8447C1.06213 22.5454 3.19739 24.7196 5.8497 24.7196C6.27819 24.7196 6.68273 24.6465 7.07532 24.5393L13.2106 30.7864C13.0955 31.1914 13.0351 31.6104 13.031 32.032C13.031 34.7327 15.1663 36.9069 17.8186 36.9069C20.4709 36.9069 22.6062 34.7327 22.6062 32.032C22.6062 31.4543 22.4913 30.9107 22.3117 30.3964L29.2848 22.0068C29.8282 22.1676 30.3908 22.2822 30.9844 22.2822C31.9291 22.2769 32.8589 22.0421 33.6966 21.5973L39.4393 26.382C39.3942 26.638 39.3686 26.8971 39.3627 27.1571C39.3627 29.8578 41.4979 32.032 44.1502 32.032C46.8025 32.032 48.9378 29.8578 48.9378 27.1571C48.9378 24.4564 46.8025 22.2822 44.1502 22.2822Z" fill="#0D5C63"/>
</g>
<defs>
<clipPath id="clip0_964_6386">
<rect width="48" height="48" fill="white" transform="translate(0.5)"/>
</clipPath>
</defs>
</svg>
