<svg width="48" height="48" viewBox="0 0 48 48" fill="none" xmlns="http://www.w3.org/2000/svg">
<g clip-path="url(#clip0_964_6377)">
<path d="M23.8406 22.8022C28.1448 22.8022 31.4925 19.3069 31.4925 15.0171C31.4925 10.7273 27.9854 7.39087 23.6812 7.39087C19.377 7.39087 16.0293 10.8862 16.0293 15.0171C16.0293 19.3069 19.5364 22.8022 23.8406 22.8022ZM23.6812 10.5685C23.8406 10.5685 23.8406 10.5685 23.6812 10.5685C26.2318 10.5685 28.3042 12.6339 28.3042 15.176C28.3042 17.7181 26.2318 19.6246 23.6812 19.6246C21.1306 19.6246 19.2176 17.5592 19.2176 15.176C19.2176 12.6339 21.29 10.5685 23.6812 10.5685Z" fill="#0D5C63"/>
<path d="M47.434 21.8487C44.4051 19.1477 40.4197 17.7178 36.2749 17.8767H34.9996C34.6808 19.1477 34.2025 20.2599 33.5649 21.2132C34.5214 21.0543 35.3184 21.0543 36.2749 21.0543C39.3038 20.8954 42.3327 21.8487 44.7239 23.5964V35.0357H47.9122V22.3253L47.434 21.8487Z" fill="#0D5C63"/>
<path d="M32.6084 7.70826C33.4055 5.8017 35.6373 4.84842 37.7097 5.64282C39.6226 6.43722 40.5791 8.66154 39.782 10.727C39.1444 12.1569 37.7097 13.1102 36.2749 13.1102C35.9561 13.1102 35.4779 13.1102 35.159 12.9513C35.3184 13.7457 35.3184 14.5401 35.3184 15.1756V16.1289C35.6373 16.1289 35.9561 16.2878 36.2749 16.2878C40.2603 16.2878 43.4486 13.1102 43.4486 9.29706C43.4486 5.32506 40.2603 2.14746 36.4343 2.14746C33.8837 2.14746 31.6519 3.4185 30.3766 5.64282C31.1737 6.11946 31.9707 6.75498 32.6084 7.70826Z" fill="#0D5C63"/>
<path d="M14.4351 21.3721C13.7975 20.4189 13.3192 19.3067 13.0004 18.0357H11.7251C7.58031 17.8768 3.59495 19.3067 0.566073 21.8488L0.0878296 22.3254V35.0358H3.27612V23.5965C5.82675 21.8488 8.69621 20.8955 11.7251 21.0544C12.6816 21.0544 13.6381 21.2133 14.4351 21.3721Z" fill="#0D5C63"/>
<path d="M11.7251 16.1293C12.044 16.1293 12.3628 16.1293 12.6816 15.9704V15.0171C12.6816 14.2227 12.6816 13.4283 12.841 12.7928C12.5222 12.9517 12.044 12.9517 11.7251 12.9517C9.65273 12.9517 7.89917 11.204 7.89917 9.13856C7.89917 7.07312 9.65273 5.32544 11.7251 5.32544C13.3193 5.32544 14.754 6.27872 15.3917 7.70864C16.0293 6.91424 16.9858 6.11984 17.7829 5.48432C15.7105 2.14784 11.4063 1.03568 8.05859 3.10112C4.71088 5.16656 3.59498 9.45632 5.66737 12.7928C6.94269 14.8582 9.17449 16.1293 11.7251 16.1293Z" fill="#0D5C63"/>
<path d="M36.9126 31.3815L36.5938 30.9049C33.4055 27.4095 28.9419 25.3441 24.1595 25.5029C19.377 25.3441 14.754 27.4095 11.5657 30.9049L11.2469 31.3815V43.4564C11.2469 44.8863 12.3628 46.1573 13.9569 46.1573H34.362C35.7967 46.1573 37.072 44.8863 37.072 43.4564V31.3815H36.9126ZM33.7243 42.9797H14.4352V32.4936C16.9858 29.9516 20.4929 28.6805 24.1595 28.6805C27.6666 28.5217 31.1737 29.9516 33.7243 32.4936V42.9797Z" fill="#0D5C63"/>
</g>
<defs>
<clipPath id="clip0_964_6377">
<rect width="48" height="44.2105" fill="white" transform="translate(0 2)"/>
</clipPath>
</defs>
</svg>
