<svg width="25" height="20" viewBox="0 0 25 20" fill="none" xmlns="http://www.w3.org/2000/svg">
<g clip-path="url(#clip0_964_5765)">
<path d="M24.5004 2.46545C23.6188 2.85138 22.6594 3.12914 21.6711 3.23732C22.6971 2.61876 23.4655 1.64153 23.832 0.488976C22.8692 1.07019 21.8145 1.47775 20.7146 1.69357C20.2549 1.19485 19.6989 0.797551 19.0813 0.526422C18.4636 0.255294 17.7976 0.116149 17.1247 0.117657C14.402 0.117657 12.2123 2.35727 12.2123 5.10561C12.2123 5.49155 12.2584 5.87749 12.3333 6.24881C8.2565 6.03245 4.62048 4.05598 2.2032 1.02987C1.76274 1.79332 1.53193 2.66258 1.53477 3.54724C1.53477 5.27811 2.402 6.80432 3.72444 7.70192C2.94511 7.67077 2.18402 7.45339 1.50308 7.06746V7.12886C1.50308 9.55267 3.19143 11.5613 5.44161 12.0233C5.01912 12.1346 4.58449 12.1916 4.14797 12.1928C3.82817 12.1928 3.52565 12.1607 3.22024 12.1168C3.84257 14.0933 5.65482 15.5289 7.8128 15.5756C6.12444 16.9176 4.00968 17.7071 1.7134 17.7071C1.3014 17.7071 0.921085 17.6924 0.526367 17.6457C2.70452 19.0637 5.28891 19.8824 8.0721 19.8824C17.1074 19.8824 22.0514 12.2864 22.0514 5.69329C22.0514 5.47693 22.0514 5.26057 22.037 5.04421C22.9936 4.33374 23.832 3.45368 24.5004 2.46545Z" fill="#21A6DF"/>
</g>
<defs>
<clipPath id="clip0_964_5765">
<rect width="24" height="19.7647" fill="white" transform="translate(0.5 0.117645)"/>
</clipPath>
</defs>
</svg>
