<svg width="111" height="22" viewBox="0 0 111 22" fill="none" xmlns="http://www.w3.org/2000/svg">
<g clip-path="url(#clip0_964_6524)">
<path d="M20.6308 8.41243C20.5731 8.24262 20.467 8.09341 20.3255 7.98322C20.184 7.87303 20.0133 7.80669 19.8346 7.79238L14.6054 7.37688L12.3426 2.36786C12.2706 2.20653 12.1533 2.0695 12.0051 1.97332C11.8569 1.87714 11.684 1.8259 11.5073 1.82581C11.3306 1.82571 11.1577 1.87675 11.0094 1.97277C10.861 2.0688 10.7437 2.20569 10.6714 2.36694L8.4086 7.37688L3.17945 7.79238C3.00376 7.8063 2.8358 7.87054 2.69566 7.97742C2.55552 8.08429 2.44914 8.22928 2.38925 8.39503C2.32935 8.56079 2.31848 8.74028 2.35793 8.91205C2.39737 9.08383 2.48547 9.24059 2.61168 9.36361L6.47599 13.1307L5.10931 19.0487C5.06782 19.2278 5.08112 19.4153 5.14749 19.5868C5.21386 19.7583 5.33024 19.9058 5.48153 20.0103C5.63282 20.1149 5.81202 20.1715 5.9959 20.1729C6.17977 20.1743 6.35982 20.1204 6.51268 20.0182L11.507 16.6886L16.5014 20.0182C16.6576 20.1219 16.8419 20.1753 17.0294 20.1712C17.2168 20.1671 17.3986 20.1057 17.5501 19.9952C17.7017 19.8847 17.8157 19.7305 17.877 19.5532C17.9383 19.376 17.9438 19.1842 17.8928 19.0037L16.2152 13.1334L20.3758 9.38929C20.6482 9.14347 20.7482 8.76007 20.6308 8.41243Z" fill="#F3CD03"/>
<path d="M42.6452 8.41243C42.5875 8.24262 42.4814 8.09341 42.3399 7.98322C42.1984 7.87303 42.0278 7.80669 41.849 7.79238L36.6198 7.37688L34.357 2.36786C34.285 2.20653 34.1677 2.0695 34.0195 1.97332C33.8713 1.87714 33.6984 1.8259 33.5217 1.82581C33.345 1.82571 33.1721 1.87675 33.0238 1.97277C32.8754 2.0688 32.7581 2.20569 32.6858 2.36694L30.423 7.37688L25.1939 7.79238C25.0182 7.8063 24.8502 7.87054 24.7101 7.97742C24.5699 8.08429 24.4635 8.22928 24.4037 8.39503C24.3438 8.56079 24.3329 8.74028 24.3723 8.91205C24.4118 9.08383 24.4999 9.24059 24.6261 9.36361L28.4904 13.1307L27.1237 19.0487C27.0822 19.2278 27.0955 19.4153 27.1619 19.5868C27.2283 19.7583 27.3446 19.9058 27.4959 20.0103C27.6472 20.1149 27.8264 20.1715 28.0103 20.1729C28.1942 20.1743 28.3742 20.1204 28.5271 20.0182L33.5214 16.6886L38.5158 20.0182C38.672 20.1219 38.8563 20.1753 39.0438 20.1712C39.2312 20.1671 39.413 20.1057 39.5645 19.9952C39.7161 19.8847 39.8301 19.7305 39.8914 19.5532C39.9527 19.376 39.9582 19.1842 39.9072 19.0037L38.2296 13.1334L42.3902 9.38929C42.6626 9.14347 42.7626 8.76007 42.6452 8.41243Z" fill="#F3CD03"/>
<path d="M64.6555 8.41243C64.5979 8.24262 64.4918 8.09341 64.3503 7.98322C64.2088 7.87303 64.0381 7.80669 63.8594 7.79238L58.6302 7.37688L56.3674 2.36786C56.2953 2.20653 56.1781 2.0695 56.0299 1.97332C55.8817 1.87714 55.7088 1.8259 55.5321 1.82581C55.3554 1.82571 55.1825 1.87675 55.0341 1.97277C54.8858 2.0688 54.7684 2.20569 54.6962 2.36694L52.4334 7.37688L47.2042 7.79238C47.0285 7.8063 46.8606 7.87054 46.7204 7.97742C46.5803 8.08429 46.4739 8.22928 46.414 8.39503C46.3541 8.56079 46.3433 8.74028 46.3827 8.91205C46.4222 9.08383 46.5103 9.24059 46.6365 9.36361L50.5008 13.1307L49.1341 19.0487C49.0926 19.2278 49.1059 19.4153 49.1723 19.5868C49.2386 19.7583 49.355 19.9058 49.5063 20.0103C49.6576 20.1149 49.8368 20.1715 50.0207 20.1729C50.2046 20.1743 50.3846 20.1204 50.5375 20.0182L55.5318 16.6886L60.5261 20.0182C60.6824 20.1219 60.8666 20.1753 61.0541 20.1712C61.2416 20.1671 61.4234 20.1057 61.5749 19.9952C61.7264 19.8847 61.8405 19.7305 61.9018 19.5532C61.963 19.376 61.9686 19.1842 61.9176 19.0037L60.24 13.1334L64.4005 9.38929C64.673 9.14347 64.7729 8.76007 64.6555 8.41243Z" fill="#F3CD03"/>
<path d="M86.6719 8.41243C86.6142 8.24262 86.5081 8.09341 86.3666 7.98322C86.2251 7.87303 86.0545 7.80669 85.8757 7.79238L80.6466 7.37688L78.3838 2.36786C78.3117 2.20653 78.1945 2.0695 78.0463 1.97332C77.898 1.87714 77.7252 1.8259 77.5485 1.82581C77.3718 1.82571 77.1988 1.87675 77.0505 1.97277C76.9022 2.0688 76.7848 2.20569 76.7126 2.36694L74.4497 7.37688L69.2206 7.79238C69.0449 7.8063 68.8769 7.87054 68.7368 7.97742C68.5967 8.08429 68.4903 8.22928 68.4304 8.39503C68.3705 8.56079 68.3596 8.74028 68.3991 8.91205C68.4385 9.08383 68.5266 9.24059 68.6528 9.36361L72.5171 13.1307L71.1505 19.0487C71.109 19.2278 71.1223 19.4153 71.1886 19.5868C71.255 19.7583 71.3714 19.9058 71.5227 20.0103C71.674 20.1149 71.8532 20.1715 72.037 20.1729C72.2209 20.1743 72.401 20.1204 72.5538 20.0182L77.5482 16.6886L82.5425 20.0182C82.6987 20.1219 82.883 20.1753 83.0705 20.1712C83.258 20.1671 83.4397 20.1057 83.5913 19.9952C83.7428 19.8847 83.8569 19.7305 83.9181 19.5532C83.9794 19.376 83.9849 19.1842 83.9339 19.0037L82.2563 13.1334L86.4169 9.38929C86.6893 9.14347 86.7893 8.76007 86.6719 8.41243Z" fill="#F3CD03"/>
<path d="M94.5323 13.1308L93.1657 19.0488C93.1233 19.228 93.136 19.4158 93.2021 19.5877C93.2682 19.7596 93.3845 19.9075 93.536 20.0122C93.6875 20.1169 93.867 20.1735 94.0511 20.1746C94.2352 20.1757 94.4154 20.1212 94.5681 20.0183L99.5624 16.6888L104.557 20.0183C104.713 20.1221 104.897 20.1755 105.085 20.1714C105.272 20.1673 105.454 20.1058 105.606 19.9953C105.757 19.8849 105.871 19.7306 105.932 19.5534C105.994 19.3761 105.999 19.1844 105.948 19.0039L104.271 13.1336L108.431 9.38944C108.564 9.26946 108.66 9.11304 108.705 8.93955C108.75 8.76605 108.744 8.58308 108.686 8.41327C108.628 8.24345 108.522 8.09424 108.381 7.98408C108.239 7.87392 108.069 7.80764 107.89 7.79345L102.661 7.37703L100.398 2.36801C100.326 2.20672 100.209 2.06976 100.06 1.97366C99.9121 1.87755 99.7391 1.82642 99.5624 1.82642C99.3857 1.82642 99.2128 1.87755 99.0646 1.97366C98.9163 2.06976 98.799 2.20672 98.7268 2.36801L96.464 7.37703L91.2349 7.79254C91.0592 7.80645 90.8912 7.87069 90.7511 7.97757C90.6109 8.08445 90.5046 8.22943 90.4447 8.39518C90.3848 8.56094 90.3739 8.74044 90.4133 8.91221C90.4528 9.08398 90.5409 9.24074 90.6671 9.36376L94.5323 13.1308ZM97.1492 9.16288C97.3129 9.14998 97.4702 9.09328 97.6044 8.99871C97.7387 8.90414 97.845 8.77519 97.9123 8.62538L99.5624 4.97387L101.213 8.62538C101.28 8.77519 101.386 8.90414 101.52 8.99871C101.655 9.09328 101.812 9.14998 101.976 9.16288L105.619 9.45181L102.619 12.1521C102.358 12.387 102.255 12.7484 102.35 13.0859L103.499 17.108L100.072 14.8231C99.922 14.7222 99.745 14.6683 99.5638 14.6683C99.3827 14.6683 99.2056 14.7222 99.0552 14.8231L95.4743 17.2107L96.4374 13.0409C96.4727 12.8876 96.468 12.7277 96.4237 12.5767C96.3793 12.4257 96.2969 12.2887 96.1843 12.1787L93.3977 9.4619L97.1492 9.16288Z" fill="#F3CD03"/>
</g>
<defs>
<clipPath id="clip0_964_6524">
<rect width="110.068" height="22" fill="white" transform="translate(0.5)"/>
</clipPath>
</defs>
</svg>
